<svg xmlns="http://www.w3.org/2000/svg" xmlns:xlink="http://www.w3.org/1999/xlink" width="1200" zoomAndPan="magnify" viewBox="0 0 900 449.999984" height="600" preserveAspectRatio="xMidYMid meet" version="1.0"><defs><g/><clipPath id="2ea344f27b"><path d="M 40.3125 136.261719 L 216.640625 136.261719 L 216.640625 312.589844 L 40.3125 312.589844 Z M 40.3125 136.261719 " clip-rule="nonzero"/></clipPath><clipPath id="e86cf23957"><path d="M 57.5625 136.261719 L 199.390625 136.261719 C 203.96875 136.261719 208.355469 138.078125 211.589844 141.3125 C 214.824219 144.546875 216.640625 148.933594 216.640625 153.511719 L 216.640625 295.339844 C 216.640625 299.914062 214.824219 304.300781 211.589844 307.535156 C 208.355469 310.769531 203.96875 312.589844 199.390625 312.589844 L 57.5625 312.589844 C 52.988281 312.589844 48.601562 310.769531 45.367188 307.535156 C 42.132812 304.300781 40.3125 299.914062 40.3125 295.339844 L 40.3125 153.511719 C 40.3125 148.933594 42.132812 144.546875 45.367188 141.3125 C 48.601562 138.078125 52.988281 136.261719 57.5625 136.261719 Z M 57.5625 136.261719 " clip-rule="nonzero"/></clipPath><clipPath id="4d5ee049c9"><path d="M 0.3125 0.261719 L 176.640625 0.261719 L 176.640625 176.589844 L 0.3125 176.589844 Z M 0.3125 0.261719 " clip-rule="nonzero"/></clipPath><clipPath id="27be071f81"><path d="M 17.5625 0.261719 L 159.390625 0.261719 C 163.96875 0.261719 168.355469 2.078125 171.589844 5.3125 C 174.824219 8.546875 176.640625 12.933594 176.640625 17.511719 L 176.640625 159.339844 C 176.640625 163.914062 174.824219 168.300781 171.589844 171.535156 C 168.355469 174.769531 163.96875 176.589844 159.390625 176.589844 L 17.5625 176.589844 C 12.988281 176.589844 8.601562 174.769531 5.367188 171.535156 C 2.132812 168.300781 0.3125 163.914062 0.3125 159.339844 L 0.3125 17.511719 C 0.3125 12.933594 2.132812 8.546875 5.367188 5.3125 C 8.601562 2.078125 12.988281 0.261719 17.5625 0.261719 Z M 17.5625 0.261719 " clip-rule="nonzero"/></clipPath><clipPath id="b07bebb1ff"><rect x="0" width="177" y="0" height="177"/></clipPath><clipPath id="0702c8ad77"><path d="M 63.078125 142.082031 L 195 142.082031 L 195 229.832031 L 63.078125 229.832031 Z M 63.078125 142.082031 " clip-rule="nonzero"/></clipPath><clipPath id="fec411e24a"><rect x="0" width="104" y="0" height="118"/></clipPath><clipPath id="2db64d2055"><path d="M 120.960938 261.722656 L 133.890625 261.722656 L 133.890625 274.648438 L 120.960938 274.648438 Z M 120.960938 261.722656 " clip-rule="nonzero"/></clipPath><clipPath id="a6af4e01fb"><path d="M 127.425781 261.722656 C 123.855469 261.722656 120.960938 264.613281 120.960938 268.183594 C 120.960938 271.753906 123.855469 274.648438 127.425781 274.648438 C 130.996094 274.648438 133.890625 271.753906 133.890625 268.183594 C 133.890625 264.613281 130.996094 261.722656 127.425781 261.722656 Z M 127.425781 261.722656 " clip-rule="nonzero"/></clipPath><clipPath id="434ca25213"><path d="M 0.960938 0.722656 L 13.890625 0.722656 L 13.890625 13.648438 L 0.960938 13.648438 Z M 0.960938 0.722656 " clip-rule="nonzero"/></clipPath><clipPath id="61b3261f20"><path d="M 7.425781 0.722656 C 3.855469 0.722656 0.960938 3.613281 0.960938 7.183594 C 0.960938 10.753906 3.855469 13.648438 7.425781 13.648438 C 10.996094 13.648438 13.890625 10.753906 13.890625 7.183594 C 13.890625 3.613281 10.996094 0.722656 7.425781 0.722656 Z M 7.425781 0.722656 " clip-rule="nonzero"/></clipPath><clipPath id="f7fed0287c"><rect x="0" width="14" y="0" height="14"/></clipPath><clipPath id="d6d84babd8"><rect x="0" width="626" y="0" height="60"/></clipPath><clipPath id="0b600ca0f6"><rect x="0" width="630" y="0" height="128"/></clipPath></defs><g clip-path="url(#2ea344f27b)"><g clip-path="url(#e86cf23957)"><g transform="matrix(1, 0, 0, 1, 40, 136)"><g clip-path="url(#b07bebb1ff)"><g clip-path="url(#4d5ee049c9)"><g clip-path="url(#27be071f81)"><path fill="#ffffff" d="M 0.3125 0.261719 L 176.640625 0.261719 L 176.640625 176.589844 L 0.3125 176.589844 Z M 0.3125 0.261719 " fill-opacity="1" fill-rule="nonzero"/></g></g></g></g></g></g><g clip-path="url(#0702c8ad77)"><path fill="#1e2a5e" d="M 82.195312 230.027344 L 175.734375 230.027344 L 177.296875 222.921875 L 80.628906 222.921875 Z M 188.207031 166.753906 C 191.875 166.753906 194.847656 169.726562 194.847656 173.394531 C 194.847656 177.058594 191.875 180.035156 188.207031 180.035156 C 187.71875 180.035156 187.238281 179.980469 186.78125 179.878906 L 178.824219 215.992188 L 79.101562 215.992188 L 71.148438 179.878906 C 70.6875 179.980469 70.210938 180.035156 69.71875 180.035156 C 66.054688 180.035156 63.078125 177.058594 63.078125 173.394531 C 63.078125 169.726562 66.054688 166.753906 69.71875 166.753906 C 73.386719 166.753906 76.359375 169.726562 76.359375 173.394531 C 76.359375 174.984375 75.800781 176.445312 74.867188 177.589844 C 85.222656 185.253906 96.152344 188.726562 105.683594 186.351562 C 117.964844 183.292969 125.222656 171.203125 126.515625 154.898438 C 124.058594 153.921875 122.324219 151.527344 122.324219 148.722656 C 122.324219 145.058594 125.296875 142.085938 128.964844 142.085938 C 132.628906 142.085938 135.605469 145.058594 135.605469 148.722656 C 135.605469 151.527344 133.867188 153.921875 131.414062 154.898438 C 132.707031 171.203125 139.960938 183.292969 152.242188 186.351562 C 161.773438 188.726562 172.703125 185.253906 183.0625 177.589844 C 182.128906 176.445312 181.570312 174.984375 181.570312 173.394531 C 181.570312 169.726562 184.539062 166.753906 188.207031 166.753906 Z M 188.207031 166.753906 " fill-opacity="1" fill-rule="evenodd"/></g><g transform="matrix(1, 0, 0, 1, 73, 207)"><g clip-path="url(#fec411e24a)"><g fill="#1e2a5e" fill-opacity="1"><g transform="translate(1.311646, 92.506504)"><g><path d="M 56.578125 0 L 41.9375 0 L 26 -25.625 L 20.546875 -21.71875 L 20.546875 0 L 7.65625 0 L 7.65625 -60.828125 L 20.546875 -60.828125 L 20.546875 -32.984375 L 25.625 -40.140625 L 42.109375 -60.828125 L 56.40625 -60.828125 L 35.203125 -33.90625 Z M 56.578125 0 "/></g></g></g><g fill="#1e2a5e" fill-opacity="1"><g transform="translate(60.24355, 92.506504)"><g><path d="M 42.6875 0 L 7.65625 0 L 7.65625 -60.828125 L 42.6875 -60.828125 L 42.6875 -50.25 L 20.546875 -50.25 L 20.546875 -36.90625 L 41.140625 -36.90625 L 41.140625 -26.328125 L 20.546875 -26.328125 L 20.546875 -10.65625 L 42.6875 -10.65625 Z M 42.6875 0 "/></g></g></g></g></g><g clip-path="url(#2db64d2055)"><g clip-path="url(#a6af4e01fb)"><g transform="matrix(1, 0, 0, 1, 120, 261)"><g clip-path="url(#f7fed0287c)"><g clip-path="url(#434ca25213)"><g clip-path="url(#61b3261f20)"><path fill="#1e2a5e" d="M 0.960938 0.722656 L 13.890625 0.722656 L 13.890625 13.648438 L 0.960938 13.648438 Z M 0.960938 0.722656 " fill-opacity="1" fill-rule="nonzero"/></g></g></g></g></g></g><g transform="matrix(1, 0, 0, 1, 235, 239)"><g clip-path="url(#d6d84babd8)"><g fill="#ffffff" fill-opacity="1"><g transform="translate(0.37649, 47.467689)"><g><path d="M 5.71875 0 L 1.234375 0 L 14.203125 -35.28125 L 18.609375 -35.28125 L 31.5625 0 L 27.078125 0 L 23.53125 -10 L 9.265625 -10 Z M 10.609375 -13.78125 L 22.1875 -13.78125 L 16.546875 -29.703125 L 16.265625 -29.703125 Z M 10.609375 -13.78125 "/></g></g></g><g fill="#ffffff" fill-opacity="1"><g transform="translate(32.931934, 47.467689)"><g><path d="M 20.40625 -10.8125 L 20.40625 -26.46875 L 24.46875 -26.46875 L 24.46875 0 L 20.40625 0 L 20.40625 -4.484375 L 20.125 -4.484375 C 19.5 -3.140625 18.53125 -2 17.21875 -1.0625 C 15.914062 -0.125 14.265625 0.34375 12.265625 0.34375 C 9.785156 0.34375 7.738281 -0.472656 6.125 -2.109375 C 4.519531 -3.753906 3.71875 -6.265625 3.71875 -9.640625 L 3.71875 -26.46875 L 7.78125 -26.46875 L 7.78125 -9.921875 C 7.78125 -7.992188 8.320312 -6.453125 9.40625 -5.296875 C 10.5 -4.148438 11.890625 -3.578125 13.578125 -3.578125 C 14.585938 -3.578125 15.617188 -3.835938 16.671875 -4.359375 C 17.722656 -4.878906 18.609375 -5.671875 19.328125 -6.734375 C 20.046875 -7.804688 20.40625 -9.164062 20.40625 -10.8125 Z M 20.40625 -10.8125 "/></g></g></g><g fill="#ffffff" fill-opacity="1"><g transform="translate(60.870851, 47.467689)"><g><path d="M 15.234375 -26.46875 L 15.234375 -23.015625 L 9.578125 -23.015625 L 9.578125 -7.578125 C 9.578125 -6.429688 9.742188 -5.570312 10.078125 -5 C 10.421875 -4.4375 10.859375 -4.054688 11.390625 -3.859375 C 11.929688 -3.671875 12.5 -3.578125 13.09375 -3.578125 C 13.539062 -3.578125 13.90625 -3.601562 14.1875 -3.65625 C 14.476562 -3.707031 14.710938 -3.753906 14.890625 -3.796875 L 15.71875 -0.140625 C 15.4375 -0.0351562 15.046875 0.0664062 14.546875 0.171875 C 14.054688 0.285156 13.4375 0.34375 12.6875 0.34375 C 11.53125 0.34375 10.40625 0.0976562 9.3125 -0.390625 C 8.21875 -0.890625 7.3125 -1.644531 6.59375 -2.65625 C 5.875 -3.664062 5.515625 -4.941406 5.515625 -6.484375 L 5.515625 -23.015625 L 1.515625 -23.015625 L 1.515625 -26.46875 L 5.515625 -26.46875 L 5.515625 -32.796875 L 9.578125 -32.796875 L 9.578125 -26.46875 Z M 15.234375 -26.46875 "/></g></g></g><g fill="#ffffff" fill-opacity="1"><g transform="translate(77.991907, 47.467689)"><g><path d="M 14.46875 0.546875 C 12.082031 0.546875 9.988281 -0.0195312 8.1875 -1.15625 C 6.394531 -2.289062 4.992188 -3.878906 3.984375 -5.921875 C 2.984375 -7.972656 2.484375 -10.363281 2.484375 -13.09375 C 2.484375 -15.851562 2.984375 -18.257812 3.984375 -20.3125 C 4.992188 -22.363281 6.394531 -23.957031 8.1875 -25.09375 C 9.988281 -26.238281 12.082031 -26.8125 14.46875 -26.8125 C 16.863281 -26.8125 18.957031 -26.238281 20.75 -25.09375 C 22.550781 -23.957031 23.953125 -22.363281 24.953125 -20.3125 C 25.960938 -18.257812 26.46875 -15.851562 26.46875 -13.09375 C 26.46875 -10.363281 25.960938 -7.972656 24.953125 -5.921875 C 23.953125 -3.878906 22.550781 -2.289062 20.75 -1.15625 C 18.957031 -0.0195312 16.863281 0.546875 14.46875 0.546875 Z M 14.46875 -3.09375 C 16.28125 -3.09375 17.769531 -3.554688 18.9375 -4.484375 C 20.113281 -5.421875 20.984375 -6.644531 21.546875 -8.15625 C 22.109375 -9.675781 22.390625 -11.320312 22.390625 -13.09375 C 22.390625 -14.863281 22.109375 -16.507812 21.546875 -18.03125 C 20.984375 -19.5625 20.113281 -20.796875 18.9375 -21.734375 C 17.769531 -22.679688 16.28125 -23.15625 14.46875 -23.15625 C 12.65625 -23.15625 11.160156 -22.679688 9.984375 -21.734375 C 8.816406 -20.796875 7.953125 -19.5625 7.390625 -18.03125 C 6.828125 -16.507812 6.546875 -14.863281 6.546875 -13.09375 C 6.546875 -11.320312 6.828125 -9.675781 7.390625 -8.15625 C 7.953125 -6.644531 8.816406 -5.421875 9.984375 -4.484375 C 11.160156 -3.554688 12.65625 -3.09375 14.46875 -3.09375 Z M 14.46875 -3.09375 "/></g></g></g><g fill="#ffffff" fill-opacity="1"><g transform="translate(106.688762, 47.467689)"><g><path d="M 3.71875 0 L 3.71875 -26.46875 L 7.65625 -26.46875 L 7.65625 -22.46875 L 7.921875 -22.46875 C 8.390625 -23.78125 9.253906 -24.84375 10.515625 -25.65625 C 11.785156 -26.46875 13.21875 -26.875 14.8125 -26.875 C 15.550781 -26.875 16.195312 -26.785156 16.75 -26.609375 C 17.300781 -26.441406 17.78125 -26.207031 18.1875 -25.90625 L 16.8125 -22.46875 C 16.53125 -22.613281 16.195312 -22.726562 15.8125 -22.8125 C 15.425781 -22.90625 14.976562 -22.953125 14.46875 -22.953125 C 12.539062 -22.953125 10.941406 -22.363281 9.671875 -21.1875 C 8.410156 -20.007812 7.78125 -18.53125 7.78125 -16.75 L 7.78125 0 Z M 3.71875 0 "/></g></g></g><g fill="#ffffff" fill-opacity="1"><g transform="translate(125.463558, 47.467689)"><g><path d="M 6.203125 10.265625 C 5.515625 10.265625 4.898438 10.207031 4.359375 10.09375 C 3.816406 9.988281 3.441406 9.882812 3.234375 9.78125 L 4.265625 6.203125 C 5.753906 6.578125 6.992188 6.566406 7.984375 6.171875 C 8.972656 5.773438 9.828125 4.59375 10.546875 2.625 L 11.4375 0.140625 L 1.65625 -26.46875 L 6.0625 -26.46875 L 13.375 -5.375 L 13.640625 -5.375 L 20.953125 -26.46875 L 25.359375 -26.46875 L 13.984375 4.265625 C 12.492188 8.265625 9.898438 10.265625 6.203125 10.265625 Z M 6.203125 10.265625 "/></g></g></g><g fill="#ffffff" fill-opacity="1"><g transform="translate(152.231119, 47.467689)"><g><path d="M 15.234375 -26.46875 L 15.234375 -23.015625 L 9.578125 -23.015625 L 9.578125 -7.578125 C 9.578125 -6.429688 9.742188 -5.570312 10.078125 -5 C 10.421875 -4.4375 10.859375 -4.054688 11.390625 -3.859375 C 11.929688 -3.671875 12.5 -3.578125 13.09375 -3.578125 C 13.539062 -3.578125 13.90625 -3.601562 14.1875 -3.65625 C 14.476562 -3.707031 14.710938 -3.753906 14.890625 -3.796875 L 15.71875 -0.140625 C 15.4375 -0.0351562 15.046875 0.0664062 14.546875 0.171875 C 14.054688 0.285156 13.4375 0.34375 12.6875 0.34375 C 11.53125 0.34375 10.40625 0.0976562 9.3125 -0.390625 C 8.21875 -0.890625 7.3125 -1.644531 6.59375 -2.65625 C 5.875 -3.664062 5.515625 -4.941406 5.515625 -6.484375 L 5.515625 -23.015625 L 1.515625 -23.015625 L 1.515625 -26.46875 L 5.515625 -26.46875 L 5.515625 -32.796875 L 9.578125 -32.796875 L 9.578125 -26.46875 Z M 15.234375 -26.46875 "/></g></g></g><g fill="#ffffff" fill-opacity="1"><g transform="translate(169.352175, 47.467689)"><g><path d="M 14.8125 0.546875 C 12.257812 0.546875 10.0625 -0.015625 8.21875 -1.140625 C 6.382812 -2.273438 4.96875 -3.859375 3.96875 -5.890625 C 2.976562 -7.929688 2.484375 -10.3125 2.484375 -13.03125 C 2.484375 -15.738281 2.976562 -18.128906 3.96875 -20.203125 C 4.96875 -22.273438 6.359375 -23.894531 8.140625 -25.0625 C 9.921875 -26.226562 12.007812 -26.8125 14.40625 -26.8125 C 15.78125 -26.8125 17.140625 -26.578125 18.484375 -26.109375 C 19.828125 -25.648438 21.050781 -24.90625 22.15625 -23.875 C 23.257812 -22.851562 24.140625 -21.5 24.796875 -19.8125 C 25.453125 -18.125 25.78125 -16.046875 25.78125 -13.578125 L 25.78125 -11.859375 L 6.5625 -11.859375 C 6.65625 -9.023438 7.457031 -6.851562 8.96875 -5.34375 C 10.476562 -3.84375 12.425781 -3.09375 14.8125 -3.09375 C 16.414062 -3.09375 17.789062 -3.4375 18.9375 -4.125 C 20.082031 -4.820312 20.914062 -5.859375 21.4375 -7.234375 L 25.359375 -6.140625 C 24.742188 -4.140625 23.503906 -2.523438 21.640625 -1.296875 C 19.773438 -0.0664062 17.5 0.546875 14.8125 0.546875 Z M 6.5625 -15.375 L 21.640625 -15.375 C 21.640625 -17.613281 20.984375 -19.46875 19.671875 -20.9375 C 18.367188 -22.414062 16.613281 -23.15625 14.40625 -23.15625 C 12.851562 -23.15625 11.507812 -22.789062 10.375 -22.0625 C 9.238281 -21.34375 8.34375 -20.390625 7.6875 -19.203125 C 7.03125 -18.015625 6.65625 -16.738281 6.5625 -15.375 Z M 6.5625 -15.375 "/></g></g></g><g fill="#ffffff" fill-opacity="1"><g transform="translate(197.359995, 47.467689)"><g><path d="M 15.234375 -26.46875 L 15.234375 -23.015625 L 9.578125 -23.015625 L 9.578125 -7.578125 C 9.578125 -6.429688 9.742188 -5.570312 10.078125 -5 C 10.421875 -4.4375 10.859375 -4.054688 11.390625 -3.859375 C 11.929688 -3.671875 12.5 -3.578125 13.09375 -3.578125 C 13.539062 -3.578125 13.90625 -3.601562 14.1875 -3.65625 C 14.476562 -3.707031 14.710938 -3.753906 14.890625 -3.796875 L 15.71875 -0.140625 C 15.4375 -0.0351562 15.046875 0.0664062 14.546875 0.171875 C 14.054688 0.285156 13.4375 0.34375 12.6875 0.34375 C 11.53125 0.34375 10.40625 0.0976562 9.3125 -0.390625 C 8.21875 -0.890625 7.3125 -1.644531 6.59375 -2.65625 C 5.875 -3.664062 5.515625 -4.941406 5.515625 -6.484375 L 5.515625 -23.015625 L 1.515625 -23.015625 L 1.515625 -26.46875 L 5.515625 -26.46875 L 5.515625 -32.796875 L 9.578125 -32.796875 L 9.578125 -26.46875 Z M 15.234375 -26.46875 "/></g></g></g><g fill="#ffffff" fill-opacity="1"><g transform="translate(214.756694, 47.467689)"><g/></g></g><g fill="#ffffff" fill-opacity="1"><g transform="translate(228.156997, 47.467689)"><g><path d="M 9.71875 0 L 1.65625 -26.46875 L 5.921875 -26.46875 L 11.640625 -6.203125 L 11.921875 -6.203125 L 17.578125 -26.46875 L 21.921875 -26.46875 L 27.5 -6.265625 L 27.765625 -6.265625 L 33.5 -26.46875 L 37.765625 -26.46875 L 29.703125 0 L 25.703125 0 L 19.921875 -20.328125 L 19.5 -20.328125 L 13.71875 0 Z M 9.71875 0 "/></g></g></g><g fill="#ffffff" fill-opacity="1"><g transform="translate(267.327152, 47.467689)"><g/></g></g><g fill="#ffffff" fill-opacity="1"><g transform="translate(280.727469, 47.467689)"><g><path d="M 14.8125 0.546875 C 12.257812 0.546875 10.0625 -0.015625 8.21875 -1.140625 C 6.382812 -2.273438 4.96875 -3.859375 3.96875 -5.890625 C 2.976562 -7.929688 2.484375 -10.3125 2.484375 -13.03125 C 2.484375 -15.738281 2.976562 -18.128906 3.96875 -20.203125 C 4.96875 -22.273438 6.359375 -23.894531 8.140625 -25.0625 C 9.921875 -26.226562 12.007812 -26.8125 14.40625 -26.8125 C 15.78125 -26.8125 17.140625 -26.578125 18.484375 -26.109375 C 19.828125 -25.648438 21.050781 -24.90625 22.15625 -23.875 C 23.257812 -22.851562 24.140625 -21.5 24.796875 -19.8125 C 25.453125 -18.125 25.78125 -16.046875 25.78125 -13.578125 L 25.78125 -11.859375 L 6.5625 -11.859375 C 6.65625 -9.023438 7.457031 -6.851562 8.96875 -5.34375 C 10.476562 -3.84375 12.425781 -3.09375 14.8125 -3.09375 C 16.414062 -3.09375 17.789062 -3.4375 18.9375 -4.125 C 20.082031 -4.820312 20.914062 -5.859375 21.4375 -7.234375 L 25.359375 -6.140625 C 24.742188 -4.140625 23.503906 -2.523438 21.640625 -1.296875 C 19.773438 -0.0664062 17.5 0.546875 14.8125 0.546875 Z M 6.5625 -15.375 L 21.640625 -15.375 C 21.640625 -17.613281 20.984375 -19.46875 19.671875 -20.9375 C 18.367188 -22.414062 16.613281 -23.15625 14.40625 -23.15625 C 12.851562 -23.15625 11.507812 -22.789062 10.375 -22.0625 C 9.238281 -21.34375 8.34375 -20.390625 7.6875 -19.203125 C 7.03125 -18.015625 6.65625 -16.738281 6.5625 -15.375 Z M 6.5625 -15.375 "/></g></g></g><g fill="#ffffff" fill-opacity="1"><g transform="translate(308.735304, 47.467689)"><g><path d="M 18.875 -17.015625 L 18.875 -13.234375 L 3.453125 -13.234375 L 3.453125 -17.015625 Z M 18.875 -17.015625 "/></g></g></g><g fill="#ffffff" fill-opacity="1"><g transform="translate(330.81742, 47.467689)"><g><path d="M 15.5 -26.46875 L 15.5 -23.015625 L 9.578125 -23.015625 L 9.578125 0 L 5.515625 0 L 5.515625 -23.015625 L 1.234375 -23.015625 L 1.234375 -26.46875 L 5.515625 -26.46875 L 5.515625 -30.109375 C 5.515625 -31.628906 5.867188 -32.894531 6.578125 -33.90625 C 7.296875 -34.914062 8.222656 -35.671875 9.359375 -36.171875 C 10.492188 -36.679688 11.691406 -36.9375 12.953125 -36.9375 C 13.953125 -36.9375 14.765625 -36.851562 15.390625 -36.6875 C 16.023438 -36.53125 16.5 -36.382812 16.8125 -36.25 L 15.640625 -32.734375 C 15.429688 -32.804688 15.144531 -32.890625 14.78125 -32.984375 C 14.425781 -33.085938 13.957031 -33.140625 13.375 -33.140625 C 12.03125 -33.140625 11.0625 -32.800781 10.46875 -32.125 C 9.875 -31.445312 9.578125 -30.457031 9.578125 -29.15625 L 9.578125 -26.46875 Z M 15.5 -26.46875 "/></g></g></g><g fill="#ffffff" fill-opacity="1"><g transform="translate(346.973784, 47.467689)"><g><path d="M 11.515625 0.625 C 9.835938 0.625 8.3125 0.304688 6.9375 -0.328125 C 5.570312 -0.972656 4.488281 -1.898438 3.6875 -3.109375 C 2.882812 -4.316406 2.484375 -5.785156 2.484375 -7.515625 C 2.484375 -9.023438 2.78125 -10.253906 3.375 -11.203125 C 3.96875 -12.148438 4.765625 -12.894531 5.765625 -13.4375 C 6.765625 -13.976562 7.867188 -14.382812 9.078125 -14.65625 C 10.296875 -14.925781 11.519531 -15.140625 12.75 -15.296875 C 14.351562 -15.503906 15.65625 -15.660156 16.65625 -15.765625 C 17.664062 -15.878906 18.40625 -16.066406 18.875 -16.328125 C 19.34375 -16.597656 19.578125 -17.0625 19.578125 -17.71875 L 19.578125 -17.84375 C 19.578125 -19.550781 19.113281 -20.875 18.1875 -21.8125 C 17.257812 -22.75 15.859375 -23.21875 13.984375 -23.21875 C 12.046875 -23.21875 10.523438 -22.789062 9.421875 -21.9375 C 8.316406 -21.09375 7.539062 -20.191406 7.09375 -19.234375 L 3.234375 -20.609375 C 3.921875 -22.210938 4.84375 -23.460938 6 -24.359375 C 7.15625 -25.265625 8.421875 -25.898438 9.796875 -26.265625 C 11.171875 -26.628906 12.523438 -26.8125 13.859375 -26.8125 C 14.703125 -26.8125 15.675781 -26.707031 16.78125 -26.5 C 17.894531 -26.300781 18.96875 -25.890625 20 -25.265625 C 21.039062 -24.648438 21.90625 -23.71875 22.59375 -22.46875 C 23.289062 -21.21875 23.640625 -19.539062 23.640625 -17.4375 L 23.640625 0 L 19.578125 0 L 19.578125 -3.578125 L 19.359375 -3.578125 C 19.085938 -3.003906 18.628906 -2.390625 17.984375 -1.734375 C 17.335938 -1.085938 16.476562 -0.53125 15.40625 -0.0625 C 14.34375 0.394531 13.046875 0.625 11.515625 0.625 Z M 12.125 -3.03125 C 13.738281 -3.03125 15.097656 -3.34375 16.203125 -3.96875 C 17.304688 -4.601562 18.144531 -5.421875 18.71875 -6.421875 C 19.289062 -7.421875 19.578125 -8.472656 19.578125 -9.578125 L 19.578125 -13.296875 C 19.398438 -13.085938 19.019531 -12.898438 18.4375 -12.734375 C 17.863281 -12.566406 17.195312 -12.421875 16.4375 -12.296875 C 15.6875 -12.179688 14.957031 -12.082031 14.25 -12 C 13.550781 -11.914062 12.984375 -11.84375 12.546875 -11.78125 C 11.484375 -11.644531 10.492188 -11.425781 9.578125 -11.125 C 8.671875 -10.820312 7.9375 -10.367188 7.375 -9.765625 C 6.820312 -9.160156 6.546875 -8.34375 6.546875 -7.3125 C 6.546875 -5.894531 7.070312 -4.828125 8.125 -4.109375 C 9.175781 -3.390625 10.507812 -3.03125 12.125 -3.03125 Z M 12.125 -3.03125 "/></g></g></g><g fill="#ffffff" fill-opacity="1"><g transform="translate(374.085846, 47.467689)"><g><path d="M 3.71875 0 L 3.71875 -35.28125 L 7.78125 -35.28125 L 7.78125 -14.671875 L 8.265625 -14.671875 L 19.84375 -26.46875 L 24.875 -26.46875 L 13.703125 -15.15625 L 25.703125 0 L 20.53125 0 L 10.625 -12.546875 L 7.78125 -9.90625 L 7.78125 0 Z M 3.71875 0 "/></g></g></g><g fill="#ffffff" fill-opacity="1"><g transform="translate(400.23326, 47.467689)"><g><path d="M 15.234375 -26.46875 L 15.234375 -23.015625 L 9.578125 -23.015625 L 9.578125 -7.578125 C 9.578125 -6.429688 9.742188 -5.570312 10.078125 -5 C 10.421875 -4.4375 10.859375 -4.054688 11.390625 -3.859375 C 11.929688 -3.671875 12.5 -3.578125 13.09375 -3.578125 C 13.539062 -3.578125 13.90625 -3.601562 14.1875 -3.65625 C 14.476562 -3.707031 14.710938 -3.753906 14.890625 -3.796875 L 15.71875 -0.140625 C 15.4375 -0.0351562 15.046875 0.0664062 14.546875 0.171875 C 14.054688 0.285156 13.4375 0.34375 12.6875 0.34375 C 11.53125 0.34375 10.40625 0.0976562 9.3125 -0.390625 C 8.21875 -0.890625 7.3125 -1.644531 6.59375 -2.65625 C 5.875 -3.664062 5.515625 -4.941406 5.515625 -6.484375 L 5.515625 -23.015625 L 1.515625 -23.015625 L 1.515625 -26.46875 L 5.515625 -26.46875 L 5.515625 -32.796875 L 9.578125 -32.796875 L 9.578125 -26.46875 Z M 15.234375 -26.46875 "/></g></g></g><g fill="#ffffff" fill-opacity="1"><g transform="translate(417.629974, 47.467689)"><g><path d="M 20.40625 -10.8125 L 20.40625 -26.46875 L 24.46875 -26.46875 L 24.46875 0 L 20.40625 0 L 20.40625 -4.484375 L 20.125 -4.484375 C 19.5 -3.140625 18.53125 -2 17.21875 -1.0625 C 15.914062 -0.125 14.265625 0.34375 12.265625 0.34375 C 9.785156 0.34375 7.738281 -0.472656 6.125 -2.109375 C 4.519531 -3.753906 3.71875 -6.265625 3.71875 -9.640625 L 3.71875 -26.46875 L 7.78125 -26.46875 L 7.78125 -9.921875 C 7.78125 -7.992188 8.320312 -6.453125 9.40625 -5.296875 C 10.5 -4.148438 11.890625 -3.578125 13.578125 -3.578125 C 14.585938 -3.578125 15.617188 -3.835938 16.671875 -4.359375 C 17.722656 -4.878906 18.609375 -5.671875 19.328125 -6.734375 C 20.046875 -7.804688 20.40625 -9.164062 20.40625 -10.8125 Z M 20.40625 -10.8125 "/></g></g></g><g fill="#ffffff" fill-opacity="1"><g transform="translate(445.568906, 47.467689)"><g><path d="M 3.71875 0 L 3.71875 -26.46875 L 7.65625 -26.46875 L 7.65625 -22.46875 L 7.921875 -22.46875 C 8.390625 -23.78125 9.253906 -24.84375 10.515625 -25.65625 C 11.785156 -26.46875 13.21875 -26.875 14.8125 -26.875 C 15.550781 -26.875 16.195312 -26.785156 16.75 -26.609375 C 17.300781 -26.441406 17.78125 -26.207031 18.1875 -25.90625 L 16.8125 -22.46875 C 16.53125 -22.613281 16.195312 -22.726562 15.8125 -22.8125 C 15.425781 -22.90625 14.976562 -22.953125 14.46875 -22.953125 C 12.539062 -22.953125 10.941406 -22.363281 9.671875 -21.1875 C 8.410156 -20.007812 7.78125 -18.53125 7.78125 -16.75 L 7.78125 0 Z M 3.71875 0 "/></g></g></g><g fill="#ffffff" fill-opacity="1"><g transform="translate(463.103338, 47.467689)"><g><path d="M 14.46875 0.546875 C 12.082031 0.546875 9.988281 -0.0195312 8.1875 -1.15625 C 6.394531 -2.289062 4.992188 -3.878906 3.984375 -5.921875 C 2.984375 -7.972656 2.484375 -10.363281 2.484375 -13.09375 C 2.484375 -15.851562 2.984375 -18.257812 3.984375 -20.3125 C 4.992188 -22.363281 6.394531 -23.957031 8.1875 -25.09375 C 9.988281 -26.238281 12.082031 -26.8125 14.46875 -26.8125 C 16.863281 -26.8125 18.957031 -26.238281 20.75 -25.09375 C 22.550781 -23.957031 23.953125 -22.363281 24.953125 -20.3125 C 25.960938 -18.257812 26.46875 -15.851562 26.46875 -13.09375 C 26.46875 -10.363281 25.960938 -7.972656 24.953125 -5.921875 C 23.953125 -3.878906 22.550781 -2.289062 20.75 -1.15625 C 18.957031 -0.0195312 16.863281 0.546875 14.46875 0.546875 Z M 14.46875 -3.09375 C 16.28125 -3.09375 17.769531 -3.554688 18.9375 -4.484375 C 20.113281 -5.421875 20.984375 -6.644531 21.546875 -8.15625 C 22.109375 -9.675781 22.390625 -11.320312 22.390625 -13.09375 C 22.390625 -14.863281 22.109375 -16.507812 21.546875 -18.03125 C 20.984375 -19.5625 20.113281 -20.796875 18.9375 -21.734375 C 17.769531 -22.679688 16.28125 -23.15625 14.46875 -23.15625 C 12.65625 -23.15625 11.160156 -22.679688 9.984375 -21.734375 C 8.816406 -20.796875 7.953125 -19.5625 7.390625 -18.03125 C 6.828125 -16.507812 6.546875 -14.863281 6.546875 -13.09375 C 6.546875 -11.320312 6.828125 -9.675781 7.390625 -8.15625 C 7.953125 -6.644531 8.816406 -5.421875 9.984375 -4.484375 C 11.160156 -3.554688 12.65625 -3.09375 14.46875 -3.09375 Z M 14.46875 -3.09375 "/></g></g></g><g fill="#ffffff" fill-opacity="1"><g transform="translate(490.904375, 47.467689)"><g><path d="M 9.71875 0 L 1.65625 -26.46875 L 5.921875 -26.46875 L 11.640625 -6.203125 L 11.921875 -6.203125 L 17.578125 -26.46875 L 21.921875 -26.46875 L 27.5 -6.265625 L 27.765625 -6.265625 L 33.5 -26.46875 L 37.765625 -26.46875 L 29.703125 0 L 25.703125 0 L 19.921875 -20.328125 L 19.5 -20.328125 L 13.71875 0 Z M 9.71875 0 "/></g></g></g><g fill="#ffffff" fill-opacity="1"><g transform="translate(530.074529, 47.467689)"><g><path d="M 11.515625 0.625 C 9.835938 0.625 8.3125 0.304688 6.9375 -0.328125 C 5.570312 -0.972656 4.488281 -1.898438 3.6875 -3.109375 C 2.882812 -4.316406 2.484375 -5.785156 2.484375 -7.515625 C 2.484375 -9.023438 2.78125 -10.253906 3.375 -11.203125 C 3.96875 -12.148438 4.765625 -12.894531 5.765625 -13.4375 C 6.765625 -13.976562 7.867188 -14.382812 9.078125 -14.65625 C 10.296875 -14.925781 11.519531 -15.140625 12.75 -15.296875 C 14.351562 -15.503906 15.65625 -15.660156 16.65625 -15.765625 C 17.664062 -15.878906 18.40625 -16.066406 18.875 -16.328125 C 19.34375 -16.597656 19.578125 -17.0625 19.578125 -17.71875 L 19.578125 -17.84375 C 19.578125 -19.550781 19.113281 -20.875 18.1875 -21.8125 C 17.257812 -22.75 15.859375 -23.21875 13.984375 -23.21875 C 12.046875 -23.21875 10.523438 -22.789062 9.421875 -21.9375 C 8.316406 -21.09375 7.539062 -20.191406 7.09375 -19.234375 L 3.234375 -20.609375 C 3.921875 -22.210938 4.84375 -23.460938 6 -24.359375 C 7.15625 -25.265625 8.421875 -25.898438 9.796875 -26.265625 C 11.171875 -26.628906 12.523438 -26.8125 13.859375 -26.8125 C 14.703125 -26.8125 15.675781 -26.707031 16.78125 -26.5 C 17.894531 -26.300781 18.96875 -25.890625 20 -25.265625 C 21.039062 -24.648438 21.90625 -23.71875 22.59375 -22.46875 C 23.289062 -21.21875 23.640625 -19.539062 23.640625 -17.4375 L 23.640625 0 L 19.578125 0 L 19.578125 -3.578125 L 19.359375 -3.578125 C 19.085938 -3.003906 18.628906 -2.390625 17.984375 -1.734375 C 17.335938 -1.085938 16.476562 -0.53125 15.40625 -0.0625 C 14.34375 0.394531 13.046875 0.625 11.515625 0.625 Z M 12.125 -3.03125 C 13.738281 -3.03125 15.097656 -3.34375 16.203125 -3.96875 C 17.304688 -4.601562 18.144531 -5.421875 18.71875 -6.421875 C 19.289062 -7.421875 19.578125 -8.472656 19.578125 -9.578125 L 19.578125 -13.296875 C 19.398438 -13.085938 19.019531 -12.898438 18.4375 -12.734375 C 17.863281 -12.566406 17.195312 -12.421875 16.4375 -12.296875 C 15.6875 -12.179688 14.957031 -12.082031 14.25 -12 C 13.550781 -11.914062 12.984375 -11.84375 12.546875 -11.78125 C 11.484375 -11.644531 10.492188 -11.425781 9.578125 -11.125 C 8.671875 -10.820312 7.9375 -10.367188 7.375 -9.765625 C 6.820312 -9.160156 6.546875 -8.34375 6.546875 -7.3125 C 6.546875 -5.894531 7.070312 -4.828125 8.125 -4.109375 C 9.175781 -3.390625 10.507812 -3.03125 12.125 -3.03125 Z M 12.125 -3.03125 "/></g></g></g><g fill="#ffffff" fill-opacity="1"><g transform="translate(557.186591, 47.467689)"><g><path d="M 7.78125 -15.921875 L 7.78125 0 L 3.71875 0 L 3.71875 -26.46875 L 7.65625 -26.46875 L 7.65625 -22.328125 L 8 -22.328125 C 8.613281 -23.671875 9.550781 -24.753906 10.8125 -25.578125 C 12.082031 -26.398438 13.71875 -26.8125 15.71875 -26.8125 C 18.394531 -26.8125 20.554688 -25.988281 22.203125 -24.34375 C 23.847656 -22.695312 24.671875 -20.1875 24.671875 -16.8125 L 24.671875 0 L 20.609375 0 L 20.609375 -16.546875 C 20.609375 -18.617188 20.066406 -20.238281 18.984375 -21.40625 C 17.898438 -22.570312 16.421875 -23.15625 14.546875 -23.15625 C 12.597656 -23.15625 10.984375 -22.523438 9.703125 -21.265625 C 8.421875 -20.003906 7.78125 -18.222656 7.78125 -15.921875 Z M 7.78125 -15.921875 "/></g></g></g><g fill="#ffffff" fill-opacity="1"><g transform="translate(585.332263, 47.467689)"><g><path d="M 3.71875 0 L 3.71875 -26.46875 L 7.78125 -26.46875 L 7.78125 0 Z M 5.78125 -30.875 C 4.988281 -30.875 4.304688 -31.144531 3.734375 -31.6875 C 3.171875 -32.226562 2.890625 -32.875 2.890625 -33.625 C 2.890625 -34.382812 3.171875 -35.035156 3.734375 -35.578125 C 4.304688 -36.117188 4.988281 -36.390625 5.78125 -36.390625 C 6.582031 -36.390625 7.265625 -36.117188 7.828125 -35.578125 C 8.398438 -35.035156 8.6875 -34.382812 8.6875 -33.625 C 8.6875 -32.875 8.398438 -32.226562 7.828125 -31.6875 C 7.265625 -31.144531 6.582031 -30.875 5.78125 -30.875 Z M 5.78125 -30.875 "/></g></g></g><g fill="#ffffff" fill-opacity="1"><g transform="translate(596.596546, 47.467689)"><g><path d="M 20.40625 -10.8125 L 20.40625 -26.46875 L 24.46875 -26.46875 L 24.46875 0 L 20.40625 0 L 20.40625 -4.484375 L 20.125 -4.484375 C 19.5 -3.140625 18.53125 -2 17.21875 -1.0625 C 15.914062 -0.125 14.265625 0.34375 12.265625 0.34375 C 9.785156 0.34375 7.738281 -0.472656 6.125 -2.109375 C 4.519531 -3.753906 3.71875 -6.265625 3.71875 -9.640625 L 3.71875 -26.46875 L 7.78125 -26.46875 L 7.78125 -9.921875 C 7.78125 -7.992188 8.320312 -6.453125 9.40625 -5.296875 C 10.5 -4.148438 11.890625 -3.578125 13.578125 -3.578125 C 14.585938 -3.578125 15.617188 -3.835938 16.671875 -4.359375 C 17.722656 -4.878906 18.609375 -5.671875 19.328125 -6.734375 C 20.046875 -7.804688 20.40625 -9.164062 20.40625 -10.8125 Z M 20.40625 -10.8125 "/></g></g></g></g></g><g transform="matrix(1, 0, 0, 1, 230, 125)"><g clip-path="url(#0b600ca0f6)"><g fill="#ffffff" fill-opacity="1"><g transform="translate(0.649783, 102.556742)"><g><path d="M 65.296875 -67.109375 L 65.296875 -65.296875 C 63.273438 -64.859375 61.113281 -63.972656 58.8125 -62.640625 C 56.507812 -61.316406 54.09375 -59.171875 51.5625 -56.203125 L 33.734375 -34.96875 L 39.234375 -42.84375 L 61.796875 -7.671875 C 62.679688 -6.222656 63.628906 -5.054688 64.640625 -4.171875 C 65.648438 -3.285156 66.976562 -2.523438 68.625 -1.890625 L 68.625 0 C 66.40625 -0.125 63.9375 -0.203125 61.21875 -0.234375 C 58.507812 -0.265625 56.046875 -0.28125 53.828125 -0.28125 C 52.503906 -0.28125 50.894531 -0.265625 49 -0.234375 C 47.101562 -0.203125 44.703125 -0.125 41.796875 0 L 41.796875 -1.890625 C 44.390625 -2.015625 45.953125 -2.378906 46.484375 -2.984375 C 47.023438 -3.585938 46.789062 -4.644531 45.78125 -6.15625 L 32.03125 -28.4375 C 31.144531 -29.882812 30.351562 -30.972656 29.65625 -31.703125 C 28.96875 -32.429688 28.273438 -32.9375 27.578125 -33.21875 C 26.878906 -33.5 25.960938 -33.671875 24.828125 -33.734375 L 24.828125 -35.734375 C 27.609375 -35.796875 30.085938 -36.550781 32.265625 -38 C 34.453125 -39.457031 36.835938 -41.671875 39.421875 -44.640625 L 45.015625 -51.375 C 47.421875 -54.21875 48.828125 -56.664062 49.234375 -58.71875 C 49.648438 -60.769531 49.238281 -62.363281 48 -63.5 C 46.769531 -64.632812 44.890625 -65.234375 42.359375 -65.296875 L 42.359375 -67.109375 C 43.941406 -67.046875 45.441406 -67 46.859375 -66.96875 C 48.285156 -66.9375 49.769531 -66.90625 51.3125 -66.875 C 52.863281 -66.84375 54.554688 -66.828125 56.390625 -66.828125 C 58.222656 -66.828125 59.878906 -66.859375 61.359375 -66.921875 C 62.847656 -66.984375 64.160156 -67.046875 65.296875 -67.109375 Z M 32.515625 -67.109375 L 32.515625 -65.203125 C 30.492188 -65.140625 28.957031 -64.898438 27.90625 -64.484375 C 26.863281 -64.078125 26.1875 -63.320312 25.875 -62.21875 C 25.5625 -61.113281 25.40625 -59.394531 25.40625 -57.0625 L 25.40625 -10.046875 C 25.40625 -7.773438 25.578125 -6.066406 25.921875 -4.921875 C 26.265625 -3.785156 26.941406 -3.023438 27.953125 -2.640625 C 28.972656 -2.265625 30.492188 -2.015625 32.515625 -1.890625 L 32.515625 0 C 30.804688 -0.125 28.65625 -0.203125 26.0625 -0.234375 C 23.46875 -0.265625 20.847656 -0.28125 18.203125 -0.28125 C 15.171875 -0.28125 12.3125 -0.265625 9.625 -0.234375 C 6.9375 -0.203125 4.800781 -0.125 3.21875 0 L 3.21875 -1.890625 C 5.238281 -2.015625 6.753906 -2.265625 7.765625 -2.640625 C 8.773438 -3.023438 9.453125 -3.785156 9.796875 -4.921875 C 10.148438 -6.066406 10.328125 -7.773438 10.328125 -10.046875 L 10.328125 -57.0625 C 10.328125 -59.394531 10.148438 -61.113281 9.796875 -62.21875 C 9.453125 -63.320312 8.757812 -64.078125 7.71875 -64.484375 C 6.675781 -64.898438 5.175781 -65.140625 3.21875 -65.203125 L 3.21875 -67.109375 C 4.800781 -67.046875 6.9375 -66.984375 9.625 -66.921875 C 12.3125 -66.859375 15.171875 -66.828125 18.203125 -66.828125 C 20.847656 -66.828125 23.46875 -66.859375 26.0625 -66.921875 C 28.65625 -66.984375 30.804688 -67.046875 32.515625 -67.109375 Z M 32.515625 -67.109375 "/></g></g></g><g fill="#ffffff" fill-opacity="1"><g transform="translate(67.847308, 102.556742)"><g><path d="M 26.921875 -68.34375 C 30.648438 -68.34375 33.523438 -67.945312 35.546875 -67.15625 C 37.566406 -66.363281 39.300781 -65.523438 40.75 -64.640625 C 41.507812 -64.203125 42.125 -63.867188 42.59375 -63.640625 C 43.070312 -63.421875 43.535156 -63.3125 43.984375 -63.3125 C 44.609375 -63.3125 45.0625 -63.660156 45.34375 -64.359375 C 45.632812 -65.054688 45.875 -66.097656 46.0625 -67.484375 L 48.25 -67.484375 C 48.1875 -66.285156 48.101562 -64.847656 48 -63.171875 C 47.90625 -61.492188 47.84375 -59.296875 47.8125 -56.578125 C 47.78125 -53.867188 47.765625 -50.300781 47.765625 -45.875 L 45.59375 -45.875 C 45.332031 -49.15625 44.570312 -52.34375 43.3125 -55.4375 C 42.050781 -58.539062 40.265625 -61.085938 37.953125 -63.078125 C 35.648438 -65.066406 32.828125 -66.0625 29.484375 -66.0625 C 26.441406 -66.0625 23.941406 -65.207031 21.984375 -63.5 C 20.023438 -61.789062 19.046875 -59.421875 19.046875 -56.390625 C 19.046875 -53.867188 19.675781 -51.707031 20.9375 -49.90625 C 22.207031 -48.101562 24.054688 -46.347656 26.484375 -44.640625 C 28.921875 -42.929688 31.878906 -40.878906 35.359375 -38.484375 C 38.390625 -36.523438 41.101562 -34.566406 43.5 -32.609375 C 45.90625 -30.648438 47.832031 -28.4375 49.28125 -25.96875 C 50.738281 -23.507812 51.46875 -20.570312 51.46875 -17.15625 C 51.46875 -12.988281 50.375 -9.546875 48.1875 -6.828125 C 46.007812 -4.109375 43.148438 -2.066406 39.609375 -0.703125 C 36.078125 0.648438 32.191406 1.328125 27.953125 1.328125 C 24.035156 1.328125 20.90625 0.945312 18.5625 0.1875 C 16.226562 -0.570312 14.273438 -1.363281 12.703125 -2.1875 C 11.304688 -3.0625 10.234375 -3.5 9.484375 -3.5 C 8.847656 -3.5 8.382812 -3.148438 8.09375 -2.453125 C 7.8125 -1.765625 7.578125 -0.726562 7.390625 0.65625 L 5.21875 0.65625 C 5.34375 -0.851562 5.421875 -2.617188 5.453125 -4.640625 C 5.484375 -6.660156 5.515625 -9.296875 5.546875 -12.546875 C 5.578125 -15.804688 5.59375 -19.929688 5.59375 -24.921875 L 7.765625 -24.921875 C 8.023438 -20.753906 8.738281 -16.851562 9.90625 -13.21875 C 11.070312 -9.582031 12.867188 -6.660156 15.296875 -4.453125 C 17.734375 -2.242188 20.972656 -1.140625 25.015625 -1.140625 C 27.234375 -1.140625 29.207031 -1.53125 30.9375 -2.3125 C 32.675781 -3.101562 34.082031 -4.289062 35.15625 -5.875 C 36.238281 -7.457031 36.78125 -9.414062 36.78125 -11.75 C 36.78125 -14.40625 36.160156 -16.710938 34.921875 -18.671875 C 33.691406 -20.628906 32.019531 -22.460938 29.90625 -24.171875 C 27.789062 -25.878906 25.34375 -27.613281 22.5625 -29.375 C 19.59375 -31.34375 16.8125 -33.304688 14.21875 -35.265625 C 11.625 -37.222656 9.550781 -39.460938 8 -41.984375 C 6.457031 -44.515625 5.6875 -47.519531 5.6875 -51 C 5.6875 -54.976562 6.679688 -58.242188 8.671875 -60.796875 C 10.660156 -63.359375 13.28125 -65.253906 16.53125 -66.484375 C 19.789062 -67.722656 23.253906 -68.34375 26.921875 -68.34375 Z M 26.921875 -68.34375 "/></g></g></g><g fill="#ffffff" fill-opacity="1"><g transform="translate(122.723715, 102.556742)"><g><path d="M 53.9375 -67.109375 C 53.675781 -64.328125 53.5 -61.640625 53.40625 -59.046875 C 53.3125 -56.453125 53.265625 -54.460938 53.265625 -53.078125 C 53.265625 -51.816406 53.296875 -50.613281 53.359375 -49.46875 C 53.421875 -48.332031 53.484375 -47.382812 53.546875 -46.625 L 51.375 -46.625 C 50.738281 -51.238281 49.753906 -54.890625 48.421875 -57.578125 C 47.097656 -60.265625 45.378906 -62.160156 43.265625 -63.265625 C 41.148438 -64.367188 38.671875 -64.921875 35.828125 -64.921875 L 31.9375 -64.921875 C 30.101562 -64.921875 28.710938 -64.765625 27.765625 -64.453125 C 26.816406 -64.140625 26.1875 -63.507812 25.875 -62.5625 C 25.5625 -61.613281 25.40625 -60.160156 25.40625 -58.203125 L 25.40625 -8.90625 C 25.40625 -6.945312 25.5625 -5.492188 25.875 -4.546875 C 26.1875 -3.597656 26.816406 -2.96875 27.765625 -2.65625 C 28.710938 -2.34375 30.101562 -2.1875 31.9375 -2.1875 L 36.578125 -2.1875 C 39.421875 -2.1875 41.929688 -2.800781 44.109375 -4.03125 C 46.296875 -5.257812 48.160156 -7.359375 49.703125 -10.328125 C 51.253906 -13.296875 52.441406 -17.3125 53.265625 -22.375 L 55.453125 -22.375 C 55.253906 -20.34375 55.15625 -17.6875 55.15625 -14.40625 C 55.15625 -12.957031 55.1875 -10.90625 55.25 -8.25 C 55.320312 -5.59375 55.515625 -2.84375 55.828125 0 C 52.609375 -0.125 48.972656 -0.203125 44.921875 -0.234375 C 40.878906 -0.265625 37.28125 -0.28125 34.125 -0.28125 C 32.539062 -0.28125 30.515625 -0.28125 28.046875 -0.28125 C 25.585938 -0.28125 22.9375 -0.265625 20.09375 -0.234375 C 17.25 -0.203125 14.375 -0.171875 11.46875 -0.140625 C 8.5625 -0.109375 5.8125 -0.0625 3.21875 0 L 3.21875 -1.890625 C 5.238281 -2.015625 6.753906 -2.265625 7.765625 -2.640625 C 8.773438 -3.023438 9.453125 -3.785156 9.796875 -4.921875 C 10.148438 -6.066406 10.328125 -7.773438 10.328125 -10.046875 L 10.328125 -57.0625 C 10.328125 -59.394531 10.148438 -61.113281 9.796875 -62.21875 C 9.453125 -63.320312 8.757812 -64.078125 7.71875 -64.484375 C 6.675781 -64.898438 5.175781 -65.140625 3.21875 -65.203125 L 3.21875 -67.109375 C 5.8125 -67.046875 8.5625 -67 11.46875 -66.96875 C 14.375 -66.9375 17.25 -66.90625 20.09375 -66.875 C 22.9375 -66.84375 25.585938 -66.828125 28.046875 -66.828125 C 30.515625 -66.828125 32.539062 -66.828125 34.125 -66.828125 C 37.03125 -66.828125 40.332031 -66.84375 44.03125 -66.875 C 47.726562 -66.90625 51.03125 -66.984375 53.9375 -67.109375 Z M 39.140625 -34.6875 C 39.140625 -34.6875 39.140625 -34.367188 39.140625 -33.734375 C 39.140625 -33.109375 39.140625 -32.796875 39.140625 -32.796875 L 22.5625 -32.796875 C 22.5625 -32.796875 22.5625 -33.109375 22.5625 -33.734375 C 22.5625 -34.367188 22.5625 -34.6875 22.5625 -34.6875 Z M 41.890625 -47.203125 C 41.640625 -43.597656 41.53125 -40.847656 41.5625 -38.953125 C 41.59375 -37.054688 41.609375 -35.316406 41.609375 -33.734375 C 41.609375 -32.160156 41.640625 -30.425781 41.703125 -28.53125 C 41.765625 -26.632812 41.921875 -23.882812 42.171875 -20.28125 L 40 -20.28125 C 39.6875 -22.488281 39.101562 -24.539062 38.25 -26.4375 C 37.394531 -28.332031 36.175781 -29.863281 34.59375 -31.03125 C 33.007812 -32.207031 30.957031 -32.796875 28.4375 -32.796875 L 28.4375 -34.6875 C 30.332031 -34.6875 31.941406 -35.082031 33.265625 -35.875 C 34.597656 -36.664062 35.6875 -37.707031 36.53125 -39 C 37.382812 -40.300781 38.0625 -41.675781 38.5625 -43.125 C 39.070312 -44.582031 39.457031 -45.941406 39.71875 -47.203125 Z M 41.890625 -47.203125 "/></g></g></g><g fill="#ffffff" fill-opacity="1"><g transform="translate(182.339008, 102.556742)"><g><path d="M 53.9375 -67.109375 C 53.675781 -64.265625 53.5 -61.515625 53.40625 -58.859375 C 53.3125 -56.203125 53.265625 -54.148438 53.265625 -52.703125 C 53.265625 -51.304688 53.296875 -49.976562 53.359375 -48.71875 C 53.421875 -47.457031 53.484375 -46.382812 53.546875 -45.5 L 51.375 -45.5 C 50.550781 -50.425781 49.410156 -54.296875 47.953125 -57.109375 C 46.503906 -59.921875 44.71875 -61.925781 42.59375 -63.125 C 40.476562 -64.320312 37.96875 -64.921875 35.0625 -64.921875 L 31.9375 -64.921875 C 30.101562 -64.921875 28.710938 -64.765625 27.765625 -64.453125 C 26.816406 -64.140625 26.1875 -63.507812 25.875 -62.5625 C 25.5625 -61.613281 25.40625 -60.160156 25.40625 -58.203125 L 25.40625 -10.609375 C 25.40625 -8.148438 25.65625 -6.316406 26.15625 -5.109375 C 26.664062 -3.910156 27.644531 -3.125 29.09375 -2.75 C 30.550781 -2.375 32.703125 -2.148438 35.546875 -2.078125 L 35.546875 0 C 33.585938 -0.0625 31.054688 -0.125 27.953125 -0.1875 C 24.859375 -0.25 21.609375 -0.28125 18.203125 -0.28125 C 15.484375 -0.28125 12.828125 -0.25 10.234375 -0.1875 C 7.640625 -0.125 5.300781 -0.0625 3.21875 0 L 3.21875 -1.890625 C 5.238281 -2.015625 6.753906 -2.265625 7.765625 -2.640625 C 8.773438 -3.023438 9.453125 -3.785156 9.796875 -4.921875 C 10.148438 -6.066406 10.328125 -7.773438 10.328125 -10.046875 L 10.328125 -57.0625 C 10.328125 -59.394531 10.148438 -61.113281 9.796875 -62.21875 C 9.453125 -63.320312 8.757812 -64.078125 7.71875 -64.484375 C 6.675781 -64.898438 5.175781 -65.140625 3.21875 -65.203125 L 3.21875 -67.109375 C 5.8125 -67.046875 8.5625 -67 11.46875 -66.96875 C 14.375 -66.9375 17.25 -66.90625 20.09375 -66.875 C 22.9375 -66.84375 25.585938 -66.828125 28.046875 -66.828125 C 30.515625 -66.828125 32.539062 -66.828125 34.125 -66.828125 C 37.03125 -66.828125 40.332031 -66.84375 44.03125 -66.875 C 47.726562 -66.90625 51.03125 -66.984375 53.9375 -67.109375 Z M 39.8125 -34.3125 C 39.8125 -34.3125 39.8125 -33.992188 39.8125 -33.359375 C 39.8125 -32.734375 39.8125 -32.421875 39.8125 -32.421875 L 22.5625 -32.421875 C 22.5625 -32.421875 22.5625 -32.734375 22.5625 -33.359375 C 22.5625 -33.992188 22.5625 -34.3125 22.5625 -34.3125 Z M 42.171875 -46.828125 C 41.921875 -43.222656 41.8125 -40.472656 41.84375 -38.578125 C 41.875 -36.679688 41.890625 -34.941406 41.890625 -33.359375 C 41.890625 -31.785156 41.921875 -30.050781 41.984375 -28.15625 C 42.046875 -26.257812 42.207031 -23.507812 42.46875 -19.90625 L 40.28125 -19.90625 C 39.90625 -22.113281 39.304688 -24.164062 38.484375 -26.0625 C 37.660156 -27.957031 36.457031 -29.488281 34.875 -30.65625 C 33.300781 -31.832031 31.25 -32.421875 28.71875 -32.421875 L 28.71875 -34.3125 C 30.613281 -34.3125 32.207031 -34.707031 33.5 -35.5 C 34.800781 -36.289062 35.894531 -37.332031 36.78125 -38.625 C 37.664062 -39.914062 38.359375 -41.285156 38.859375 -42.734375 C 39.367188 -44.191406 39.75 -45.554688 40 -46.828125 Z M 42.171875 -46.828125 "/></g></g></g><g fill="#ffffff" fill-opacity="1"><g transform="translate(232.570818, 102.556742)"><g><path d="M 12.796875 -13.265625 C 15.253906 -13.265625 17.210938 -12.617188 18.671875 -11.328125 C 20.128906 -10.035156 20.859375 -8.25 20.859375 -5.96875 C 20.859375 -3.695312 20.128906 -1.910156 18.671875 -0.609375 C 17.210938 0.679688 15.253906 1.328125 12.796875 1.328125 C 10.328125 1.328125 8.363281 0.679688 6.90625 -0.609375 C 5.457031 -1.910156 4.734375 -3.695312 4.734375 -5.96875 C 4.734375 -8.25 5.457031 -10.035156 6.90625 -11.328125 C 8.363281 -12.617188 10.328125 -13.265625 12.796875 -13.265625 Z M 12.796875 -13.265625 "/></g></g></g><g fill="#ffffff" fill-opacity="1"><g transform="translate(257.68694, 102.556742)"><g><path d="M 53.9375 -67.109375 C 53.675781 -64.328125 53.5 -61.640625 53.40625 -59.046875 C 53.3125 -56.453125 53.265625 -54.460938 53.265625 -53.078125 C 53.265625 -51.816406 53.296875 -50.613281 53.359375 -49.46875 C 53.421875 -48.332031 53.484375 -47.382812 53.546875 -46.625 L 51.375 -46.625 C 50.738281 -51.238281 49.753906 -54.890625 48.421875 -57.578125 C 47.097656 -60.265625 45.378906 -62.160156 43.265625 -63.265625 C 41.148438 -64.367188 38.671875 -64.921875 35.828125 -64.921875 L 31.9375 -64.921875 C 30.101562 -64.921875 28.710938 -64.765625 27.765625 -64.453125 C 26.816406 -64.140625 26.1875 -63.507812 25.875 -62.5625 C 25.5625 -61.613281 25.40625 -60.160156 25.40625 -58.203125 L 25.40625 -8.90625 C 25.40625 -6.945312 25.5625 -5.492188 25.875 -4.546875 C 26.1875 -3.597656 26.816406 -2.96875 27.765625 -2.65625 C 28.710938 -2.34375 30.101562 -2.1875 31.9375 -2.1875 L 36.578125 -2.1875 C 39.421875 -2.1875 41.929688 -2.800781 44.109375 -4.03125 C 46.296875 -5.257812 48.160156 -7.359375 49.703125 -10.328125 C 51.253906 -13.296875 52.441406 -17.3125 53.265625 -22.375 L 55.453125 -22.375 C 55.253906 -20.34375 55.15625 -17.6875 55.15625 -14.40625 C 55.15625 -12.957031 55.1875 -10.90625 55.25 -8.25 C 55.320312 -5.59375 55.515625 -2.84375 55.828125 0 C 52.609375 -0.125 48.972656 -0.203125 44.921875 -0.234375 C 40.878906 -0.265625 37.28125 -0.28125 34.125 -0.28125 C 32.539062 -0.28125 30.515625 -0.28125 28.046875 -0.28125 C 25.585938 -0.28125 22.9375 -0.265625 20.09375 -0.234375 C 17.25 -0.203125 14.375 -0.171875 11.46875 -0.140625 C 8.5625 -0.109375 5.8125 -0.0625 3.21875 0 L 3.21875 -1.890625 C 5.238281 -2.015625 6.753906 -2.265625 7.765625 -2.640625 C 8.773438 -3.023438 9.453125 -3.785156 9.796875 -4.921875 C 10.148438 -6.066406 10.328125 -7.773438 10.328125 -10.046875 L 10.328125 -57.0625 C 10.328125 -59.394531 10.148438 -61.113281 9.796875 -62.21875 C 9.453125 -63.320312 8.757812 -64.078125 7.71875 -64.484375 C 6.675781 -64.898438 5.175781 -65.140625 3.21875 -65.203125 L 3.21875 -67.109375 C 5.8125 -67.046875 8.5625 -67 11.46875 -66.96875 C 14.375 -66.9375 17.25 -66.90625 20.09375 -66.875 C 22.9375 -66.84375 25.585938 -66.828125 28.046875 -66.828125 C 30.515625 -66.828125 32.539062 -66.828125 34.125 -66.828125 C 37.03125 -66.828125 40.332031 -66.84375 44.03125 -66.875 C 47.726562 -66.90625 51.03125 -66.984375 53.9375 -67.109375 Z M 39.140625 -34.6875 C 39.140625 -34.6875 39.140625 -34.367188 39.140625 -33.734375 C 39.140625 -33.109375 39.140625 -32.796875 39.140625 -32.796875 L 22.5625 -32.796875 C 22.5625 -32.796875 22.5625 -33.109375 22.5625 -33.734375 C 22.5625 -34.367188 22.5625 -34.6875 22.5625 -34.6875 Z M 41.890625 -47.203125 C 41.640625 -43.597656 41.53125 -40.847656 41.5625 -38.953125 C 41.59375 -37.054688 41.609375 -35.316406 41.609375 -33.734375 C 41.609375 -32.160156 41.640625 -30.425781 41.703125 -28.53125 C 41.765625 -26.632812 41.921875 -23.882812 42.171875 -20.28125 L 40 -20.28125 C 39.6875 -22.488281 39.101562 -24.539062 38.25 -26.4375 C 37.394531 -28.332031 36.175781 -29.863281 34.59375 -31.03125 C 33.007812 -32.207031 30.957031 -32.796875 28.4375 -32.796875 L 28.4375 -34.6875 C 30.332031 -34.6875 31.941406 -35.082031 33.265625 -35.875 C 34.597656 -36.664062 35.6875 -37.707031 36.53125 -39 C 37.382812 -40.300781 38.0625 -41.675781 38.5625 -43.125 C 39.070312 -44.582031 39.457031 -45.941406 39.71875 -47.203125 Z M 41.890625 -47.203125 "/></g></g></g><g fill="#ffffff" fill-opacity="1"><g transform="translate(317.302234, 102.556742)"><g><path d="M 28.34375 -67.203125 L 28.34375 -65.203125 C 25.5 -65.203125 23.679688 -64.929688 22.890625 -64.390625 C 22.097656 -63.859375 22.144531 -62.929688 23.03125 -61.609375 L 60.5625 -6.734375 C 61.820312 -4.960938 62.832031 -3.757812 63.59375 -3.125 C 64.351562 -2.5 65.363281 -2.117188 66.625 -1.984375 L 66.625 0 C 65.363281 -0.0625 63.53125 -0.140625 61.125 -0.234375 C 58.726562 -0.328125 56.234375 -0.375 53.640625 -0.375 C 50.796875 -0.375 47.90625 -0.328125 44.96875 -0.234375 C 42.03125 -0.140625 39.835938 -0.0625 38.390625 0 L 38.390625 -1.984375 C 41.296875 -1.984375 43.175781 -2.1875 44.03125 -2.59375 C 44.882812 -3.007812 44.867188 -3.882812 43.984375 -5.21875 L 6.34375 -60.46875 C 5.144531 -62.300781 4.164062 -63.53125 3.40625 -64.15625 C 2.65625 -64.789062 1.613281 -65.140625 0.28125 -65.203125 L 0.28125 -67.203125 C 1.613281 -67.140625 3.554688 -67.0625 6.109375 -66.96875 C 8.671875 -66.875 11.25 -66.828125 13.84375 -66.828125 C 16.6875 -66.828125 19.414062 -66.875 22.03125 -66.96875 C 24.65625 -67.0625 26.757812 -67.140625 28.34375 -67.203125 Z M 29.1875 -33.734375 C 29.1875 -33.734375 29.25 -33.53125 29.375 -33.125 C 29.507812 -32.71875 29.640625 -32.304688 29.765625 -31.890625 C 29.890625 -31.484375 29.953125 -31.28125 29.953125 -31.28125 L 20.46875 -18.296875 C 17.945312 -14.878906 16.523438 -11.984375 16.203125 -9.609375 C 15.890625 -7.242188 16.441406 -5.414062 17.859375 -4.125 C 19.285156 -2.832031 21.390625 -2.085938 24.171875 -1.890625 L 24.171875 0 C 23.285156 -0.0625 22.160156 -0.109375 20.796875 -0.140625 C 19.441406 -0.171875 18.019531 -0.203125 16.53125 -0.234375 C 15.050781 -0.265625 13.660156 -0.28125 12.359375 -0.28125 C 11.066406 -0.28125 10.007812 -0.28125 9.1875 -0.28125 C 7.425781 -0.28125 5.785156 -0.265625 4.265625 -0.234375 C 2.742188 -0.203125 1.476562 -0.125 0.46875 0 L 0.46875 -1.890625 C 2.6875 -2.648438 4.929688 -3.992188 7.203125 -5.921875 C 9.472656 -7.847656 11.8125 -10.359375 14.21875 -13.453125 Z M 62.359375 -67.109375 L 62.359375 -65.203125 C 60.273438 -64.640625 58.207031 -63.441406 56.15625 -61.609375 C 54.101562 -59.773438 52.191406 -57.65625 50.421875 -55.25 L 35.0625 -34.78125 C 35.0625 -34.78125 34.953125 -35.191406 34.734375 -36.015625 C 34.515625 -36.835938 34.40625 -37.25 34.40625 -37.25 L 44.171875 -50.421875 C 46.566406 -53.453125 48 -56.039062 48.46875 -58.1875 C 48.945312 -60.34375 48.585938 -62.019531 47.390625 -63.21875 C 46.191406 -64.414062 44.296875 -65.078125 41.703125 -65.203125 L 41.703125 -67.109375 C 42.898438 -67.046875 44.222656 -67 45.671875 -66.96875 C 47.128906 -66.9375 48.566406 -66.90625 49.984375 -66.875 C 51.410156 -66.84375 52.628906 -66.828125 53.640625 -66.828125 C 55.472656 -66.828125 57.144531 -66.859375 58.65625 -66.921875 C 60.175781 -66.984375 61.410156 -67.046875 62.359375 -67.109375 Z M 62.359375 -67.109375 "/></g></g></g><g fill="#ffffff" fill-opacity="1"><g transform="translate(382.319866, 102.556742)"><g><path d="M 3.21875 -67.109375 C 4.800781 -67.046875 6.9375 -66.984375 9.625 -66.921875 C 12.3125 -66.859375 14.976562 -66.828125 17.625 -66.828125 C 20.65625 -66.828125 23.59375 -66.859375 26.4375 -66.921875 C 29.28125 -66.984375 31.304688 -67.015625 32.515625 -67.015625 C 41.296875 -67.015625 47.863281 -65.273438 52.21875 -61.796875 C 56.582031 -58.316406 58.765625 -53.832031 58.765625 -48.34375 C 58.765625 -46.0625 58.320312 -43.671875 57.4375 -41.171875 C 56.550781 -38.679688 55.050781 -36.378906 52.9375 -34.265625 C 50.820312 -32.148438 47.929688 -30.425781 44.265625 -29.09375 C 40.597656 -27.769531 35.984375 -27.109375 30.421875 -27.109375 L 20.75 -27.109375 L 20.75 -29 L 29.484375 -29 C 33.203125 -29 36.023438 -29.851562 37.953125 -31.5625 C 39.878906 -33.269531 41.207031 -35.515625 41.9375 -38.296875 C 42.664062 -41.078125 43.03125 -44.078125 43.03125 -47.296875 C 43.03125 -53.296875 42.144531 -57.78125 40.375 -60.75 C 38.601562 -63.71875 35.570312 -65.203125 31.28125 -65.203125 C 28.8125 -65.203125 27.210938 -64.664062 26.484375 -63.59375 C 25.765625 -62.519531 25.40625 -60.34375 25.40625 -57.0625 L 25.40625 -10.609375 C 25.40625 -8.148438 25.65625 -6.316406 26.15625 -5.109375 C 26.664062 -3.910156 27.644531 -3.125 29.09375 -2.75 C 30.550781 -2.375 32.703125 -2.148438 35.546875 -2.078125 L 35.546875 0 C 33.585938 -0.0625 31.054688 -0.125 27.953125 -0.1875 C 24.859375 -0.25 21.609375 -0.28125 18.203125 -0.28125 C 15.484375 -0.28125 12.828125 -0.25 10.234375 -0.1875 C 7.640625 -0.125 5.300781 -0.0625 3.21875 0 L 3.21875 -1.890625 C 5.238281 -2.015625 6.753906 -2.265625 7.765625 -2.640625 C 8.773438 -3.023438 9.453125 -3.785156 9.796875 -4.921875 C 10.148438 -6.066406 10.328125 -7.773438 10.328125 -10.046875 L 10.328125 -57.0625 C 10.328125 -59.394531 10.148438 -61.113281 9.796875 -62.21875 C 9.453125 -63.320312 8.757812 -64.078125 7.71875 -64.484375 C 6.675781 -64.898438 5.175781 -65.140625 3.21875 -65.203125 Z M 3.21875 -67.109375 "/></g></g></g><g fill="#ffffff" fill-opacity="1"><g transform="translate(442.124668, 102.556742)"><g><path d="M 53.9375 -67.109375 C 53.675781 -64.328125 53.5 -61.640625 53.40625 -59.046875 C 53.3125 -56.453125 53.265625 -54.460938 53.265625 -53.078125 C 53.265625 -51.816406 53.296875 -50.613281 53.359375 -49.46875 C 53.421875 -48.332031 53.484375 -47.382812 53.546875 -46.625 L 51.375 -46.625 C 50.738281 -51.238281 49.753906 -54.890625 48.421875 -57.578125 C 47.097656 -60.265625 45.378906 -62.160156 43.265625 -63.265625 C 41.148438 -64.367188 38.671875 -64.921875 35.828125 -64.921875 L 31.9375 -64.921875 C 30.101562 -64.921875 28.710938 -64.765625 27.765625 -64.453125 C 26.816406 -64.140625 26.1875 -63.507812 25.875 -62.5625 C 25.5625 -61.613281 25.40625 -60.160156 25.40625 -58.203125 L 25.40625 -8.90625 C 25.40625 -6.945312 25.5625 -5.492188 25.875 -4.546875 C 26.1875 -3.597656 26.816406 -2.96875 27.765625 -2.65625 C 28.710938 -2.34375 30.101562 -2.1875 31.9375 -2.1875 L 36.578125 -2.1875 C 39.421875 -2.1875 41.929688 -2.800781 44.109375 -4.03125 C 46.296875 -5.257812 48.160156 -7.359375 49.703125 -10.328125 C 51.253906 -13.296875 52.441406 -17.3125 53.265625 -22.375 L 55.453125 -22.375 C 55.253906 -20.34375 55.15625 -17.6875 55.15625 -14.40625 C 55.15625 -12.957031 55.1875 -10.90625 55.25 -8.25 C 55.320312 -5.59375 55.515625 -2.84375 55.828125 0 C 52.609375 -0.125 48.972656 -0.203125 44.921875 -0.234375 C 40.878906 -0.265625 37.28125 -0.28125 34.125 -0.28125 C 32.539062 -0.28125 30.515625 -0.28125 28.046875 -0.28125 C 25.585938 -0.28125 22.9375 -0.265625 20.09375 -0.234375 C 17.25 -0.203125 14.375 -0.171875 11.46875 -0.140625 C 8.5625 -0.109375 5.8125 -0.0625 3.21875 0 L 3.21875 -1.890625 C 5.238281 -2.015625 6.753906 -2.265625 7.765625 -2.640625 C 8.773438 -3.023438 9.453125 -3.785156 9.796875 -4.921875 C 10.148438 -6.066406 10.328125 -7.773438 10.328125 -10.046875 L 10.328125 -57.0625 C 10.328125 -59.394531 10.148438 -61.113281 9.796875 -62.21875 C 9.453125 -63.320312 8.757812 -64.078125 7.71875 -64.484375 C 6.675781 -64.898438 5.175781 -65.140625 3.21875 -65.203125 L 3.21875 -67.109375 C 5.8125 -67.046875 8.5625 -67 11.46875 -66.96875 C 14.375 -66.9375 17.25 -66.90625 20.09375 -66.875 C 22.9375 -66.84375 25.585938 -66.828125 28.046875 -66.828125 C 30.515625 -66.828125 32.539062 -66.828125 34.125 -66.828125 C 37.03125 -66.828125 40.332031 -66.84375 44.03125 -66.875 C 47.726562 -66.90625 51.03125 -66.984375 53.9375 -67.109375 Z M 39.140625 -34.6875 C 39.140625 -34.6875 39.140625 -34.367188 39.140625 -33.734375 C 39.140625 -33.109375 39.140625 -32.796875 39.140625 -32.796875 L 22.5625 -32.796875 C 22.5625 -32.796875 22.5625 -33.109375 22.5625 -33.734375 C 22.5625 -34.367188 22.5625 -34.6875 22.5625 -34.6875 Z M 41.890625 -47.203125 C 41.640625 -43.597656 41.53125 -40.847656 41.5625 -38.953125 C 41.59375 -37.054688 41.609375 -35.316406 41.609375 -33.734375 C 41.609375 -32.160156 41.640625 -30.425781 41.703125 -28.53125 C 41.765625 -26.632812 41.921875 -23.882812 42.171875 -20.28125 L 40 -20.28125 C 39.6875 -22.488281 39.101562 -24.539062 38.25 -26.4375 C 37.394531 -28.332031 36.175781 -29.863281 34.59375 -31.03125 C 33.007812 -32.207031 30.957031 -32.796875 28.4375 -32.796875 L 28.4375 -34.6875 C 30.332031 -34.6875 31.941406 -35.082031 33.265625 -35.875 C 34.597656 -36.664062 35.6875 -37.707031 36.53125 -39 C 37.382812 -40.300781 38.0625 -41.675781 38.5625 -43.125 C 39.070312 -44.582031 39.457031 -45.941406 39.71875 -47.203125 Z M 41.890625 -47.203125 "/></g></g></g><g fill="#ffffff" fill-opacity="1"><g transform="translate(501.73999, 102.556742)"><g><path d="M 3.21875 -67.109375 C 4.800781 -67.046875 6.9375 -66.984375 9.625 -66.921875 C 12.3125 -66.859375 14.976562 -66.828125 17.625 -66.828125 C 20.65625 -66.828125 23.59375 -66.859375 26.4375 -66.921875 C 29.28125 -66.984375 31.304688 -67.015625 32.515625 -67.015625 C 38.390625 -67.015625 43.269531 -66.363281 47.15625 -65.0625 C 51.039062 -63.769531 53.945312 -61.890625 55.875 -59.421875 C 57.800781 -56.960938 58.765625 -53.992188 58.765625 -50.515625 C 58.765625 -48.367188 58.320312 -46.203125 57.4375 -44.015625 C 56.550781 -41.835938 55.050781 -39.816406 52.9375 -37.953125 C 50.820312 -36.085938 47.929688 -34.601562 44.265625 -33.5 C 40.597656 -32.394531 35.984375 -31.84375 30.421875 -31.84375 L 21.328125 -31.84375 L 21.328125 -33.734375 L 29.484375 -33.734375 C 33.203125 -33.734375 36.023438 -34.441406 37.953125 -35.859375 C 39.878906 -37.285156 41.207031 -39.179688 41.9375 -41.546875 C 42.664062 -43.921875 43.03125 -46.5625 43.03125 -49.46875 C 43.03125 -54.46875 42.144531 -58.335938 40.375 -61.078125 C 38.601562 -63.828125 35.570312 -65.203125 31.28125 -65.203125 C 28.8125 -65.203125 27.210938 -64.664062 26.484375 -63.59375 C 25.765625 -62.519531 25.40625 -60.34375 25.40625 -57.0625 L 25.40625 -10.046875 C 25.40625 -7.773438 25.578125 -6.066406 25.921875 -4.921875 C 26.265625 -3.785156 26.941406 -3.023438 27.953125 -2.640625 C 28.972656 -2.265625 30.492188 -2.015625 32.515625 -1.890625 L 32.515625 0 C 30.804688 -0.125 28.65625 -0.203125 26.0625 -0.234375 C 23.46875 -0.265625 20.847656 -0.28125 18.203125 -0.28125 C 15.171875 -0.28125 12.3125 -0.265625 9.625 -0.234375 C 6.9375 -0.203125 4.800781 -0.125 3.21875 0 L 3.21875 -1.890625 C 5.238281 -2.015625 6.753906 -2.265625 7.765625 -2.640625 C 8.773438 -3.023438 9.453125 -3.785156 9.796875 -4.921875 C 10.148438 -6.066406 10.328125 -7.773438 10.328125 -10.046875 L 10.328125 -57.0625 C 10.328125 -59.394531 10.148438 -61.113281 9.796875 -62.21875 C 9.453125 -63.320312 8.757812 -64.078125 7.71875 -64.484375 C 6.675781 -64.898438 5.175781 -65.140625 3.21875 -65.203125 Z M 21.140625 -33.453125 C 23.859375 -33.390625 26.210938 -33.265625 28.203125 -33.078125 C 30.191406 -32.890625 31.941406 -32.71875 33.453125 -32.5625 C 34.972656 -32.40625 36.332031 -32.289062 37.53125 -32.21875 C 43.28125 -31.71875 47.53125 -30.488281 50.28125 -28.53125 C 53.03125 -26.570312 54.816406 -23.632812 55.640625 -19.71875 L 57.8125 -9.953125 C 58.382812 -7.421875 58.984375 -5.648438 59.609375 -4.640625 C 60.242188 -3.628906 61.160156 -3.125 62.359375 -3.125 C 63.179688 -3.1875 63.859375 -3.390625 64.390625 -3.734375 C 64.929688 -4.085938 65.519531 -4.613281 66.15625 -5.3125 L 67.484375 -4.171875 C 65.773438 -2.210938 63.941406 -0.804688 61.984375 0.046875 C 60.023438 0.898438 57.65625 1.328125 54.875 1.328125 C 51.46875 1.328125 48.65625 0.601562 46.4375 -0.84375 C 44.226562 -2.300781 42.773438 -4.988281 42.078125 -8.90625 L 40.375 -18.390625 C 39.9375 -21.046875 39.398438 -23.367188 38.765625 -25.359375 C 38.128906 -27.347656 37.257812 -28.925781 36.15625 -30.09375 C 35.050781 -31.257812 33.519531 -31.84375 31.5625 -31.84375 L 21.328125 -31.84375 Z M 21.140625 -33.453125 "/></g></g></g><g fill="#ffffff" fill-opacity="1"><g transform="translate(566.568056, 102.556742)"><g><path d="M 60.84375 -67.109375 C 60.59375 -63.878906 60.421875 -60.78125 60.328125 -57.8125 C 60.234375 -54.84375 60.1875 -52.570312 60.1875 -51 C 60.1875 -49.601562 60.21875 -48.269531 60.28125 -47 C 60.34375 -45.738281 60.40625 -44.664062 60.46875 -43.78125 L 58.296875 -43.78125 C 57.285156 -49.09375 56.003906 -53.296875 54.453125 -56.390625 C 52.898438 -59.492188 51.050781 -61.691406 48.90625 -62.984375 C 46.757812 -64.273438 44.234375 -64.921875 41.328125 -64.921875 L 39.140625 -64.921875 L 39.140625 -10.8125 C 39.140625 -8.28125 39.40625 -6.378906 39.9375 -5.109375 C 40.476562 -3.847656 41.472656 -3.007812 42.921875 -2.59375 C 44.378906 -2.1875 46.5 -1.953125 49.28125 -1.890625 L 49.28125 0 C 47.320312 -0.0625 44.710938 -0.125 41.453125 -0.1875 C 38.203125 -0.25 34.8125 -0.28125 31.28125 -0.28125 C 27.800781 -0.28125 24.515625 -0.25 21.421875 -0.1875 C 18.328125 -0.125 15.832031 -0.0625 13.9375 0 L 13.9375 -1.890625 C 16.78125 -1.953125 18.925781 -2.1875 20.375 -2.59375 C 21.832031 -3.007812 22.8125 -3.847656 23.3125 -5.109375 C 23.820312 -6.378906 24.078125 -8.28125 24.078125 -10.8125 L 24.078125 -64.921875 L 21.984375 -64.921875 C 19.078125 -64.921875 16.550781 -64.273438 14.40625 -62.984375 C 12.257812 -61.691406 10.425781 -59.507812 8.90625 -56.4375 C 7.394531 -53.375 6.066406 -49.15625 4.921875 -43.78125 L 2.75 -43.78125 C 2.875 -44.664062 2.953125 -45.738281 2.984375 -47 C 3.015625 -48.269531 3.03125 -49.601562 3.03125 -51 C 3.03125 -52.570312 2.984375 -54.84375 2.890625 -57.8125 C 2.796875 -60.78125 2.625 -63.878906 2.375 -67.109375 C 5.28125 -67.046875 8.453125 -66.984375 11.890625 -66.921875 C 15.335938 -66.859375 18.796875 -66.828125 22.265625 -66.828125 C 25.742188 -66.828125 28.875 -66.828125 31.65625 -66.828125 C 34.5 -66.828125 37.640625 -66.828125 41.078125 -66.828125 C 44.523438 -66.828125 47.984375 -66.859375 51.453125 -66.921875 C 54.929688 -66.984375 58.0625 -67.046875 60.84375 -67.109375 Z M 60.84375 -67.109375 "/></g></g></g></g></g></svg>